<?xml version="1.0" encoding="iso-8859-1"?>
<!-- Generator: Adobe Illustrator 18.0.0, SVG Export Plug-In . SVG Version: 6.00 Build 0)  -->
<!DOCTYPE svg PUBLIC "-//W3C//DTD SVG 1.1//EN" "http://www.w3.org/Graphics/SVG/1.1/DTD/svg11.dtd">
<svg version="1.1" id="Capa_1" xmlns="http://www.w3.org/2000/svg" xmlns:xlink="http://www.w3.org/1999/xlink" x="0px" y="0px"
	 viewBox="0 0 273.325 273.325" style="enable-background:new 0 0 273.325 273.325;" xml:space="preserve">
<g>
	<path style="fill:#1D1D1B;" d="M222.617,57.649c-24.997,2.709-49.281-1.16-74.097,0.915c-32.123,2.685-65.531-3.062-97.815-2.41
		c-1.118,0.022-1.599,0.893-1.509,1.722c-1.112-0.351-2.498,0.204-2.413,1.696c1.058,18.433,2.28,36.881,2.24,55.354
		c-0.037,17.339-2.641,34.775-1.542,52.054c-0.291,0.462-0.293,1.084,0.075,1.488c0.004,0.052,0.004,0.105,0.008,0.157
		c0.109,1.405,2,1.486,2.292,0.265c57.319,1.949,115.781,0.904,173.063-1.503c0.621-0.026,1.043-0.326,1.306-0.723
		c0.486-0.239,0.868-0.692,0.894-1.401c1.278-35.583,1.247-71.223,1.592-106.824C226.734,55.997,223.38,55.742,222.617,57.649z
		 M49.976,166.333c-0.02-35.799,2.879-70.712,0.555-106.761c-0.007-0.112-0.057-0.194-0.079-0.295
		c0.087,0.02,0.157,0.061,0.254,0.069c31.621,2.553,66.176,5.477,97.815,3.246c24.655-1.739,49.076,2.051,73.883-0.772
		c-0.409,34.058-1.101,68.141-0.624,102.198C164.857,162.896,106.824,163.155,49.976,166.333z"/>
	<path style="fill:#1D1D1B;" d="M273.015,212.449c-0.102-0.746-0.821-1.087-1.522-1.06c-10.417-9.628-19.941-19.817-29.114-30.613
		c6.153-9.419,1.652-33.34,1.66-42.143c0.032-31.306,0.138-62.637-0.513-93.937c-0.033-1.602-1.547-2.218-2.723-1.864
		c-0.266-0.171-0.572-0.302-0.964-0.318c-35.058-1.448-70.298-0.421-105.38-0.275c-33.33,0.139-67.265-1.444-100.499,1.194
		c-0.222-2.297-3.88-2.247-3.885,0.206c-0.098,45.518-1.704,91.342,0.253,136.83c-5.162,4.779-10.122,9.763-14.82,15.001
		c-4.723,5.265-10.109,10.663-13.643,16.815c-0.111,0.194-0.173,0.387-0.203,0.576c-0.388,0.07-0.739,0.264-0.823,0.746
		c-0.017,0.097-0.033,0.206-0.049,0.305c-0.285,0.344-0.313,0.794-0.201,1.236c-0.71,4.579-1.17,10.394,1.009,14.317
		c0.713,1.285,2.445,0.659,2.65-0.613c43.391,4.445,87.715,2.329,131.249,1.4c44.986-0.96,90.021-1.426,134.988-3.075
		c0.201-0.007,0.362-0.07,0.528-0.125c0.393,0.449,1.269,0.316,1.302-0.453c0.06-1.383,0.671-2.818,0.793-4.23
		c0.091-1.052,0.138-2.118,0.178-3.173C273.374,216.9,273.327,214.724,273.015,212.449z M33.04,181.941
		c0.391-0.426,0.776-0.858,1.168-1.284c0.945-1.03,0.054-2.358-1.02-2.37c1.995-44.055,0.747-88.428,0.816-132.522
		c67.616,4.926,137.646,1.279,205.446,0.544c0.051,23.967,0.319,47.935,0.365,71.904c0.02,10.892,0.005,21.783,0.072,32.675
		c0.034,5.425,2.779,21.076-0.105,27.786c-0.404,0.081-0.775,0.341-0.994,0.701l-0.009-0.002
		c-67.846-2.36-137.961-0.978-205.751,2.896C33.032,182.159,33.035,182.05,33.04,181.941z M231.128,184.011
		c1.323,2.254,3.246,4.13,4.647,6.362c0.787,1.256,1.505,2.544,2.18,3.854c-67.959,0.559-136.126-0.017-204.025,2.777
		c1.062-1.182,2.335-2.581,3.41-3.95c1.006-1.282,1.992-2.579,2.973-3.881c0.807-1.071,2.052-2.276,2.083-3.691
		c62.321,1.812,126.326,1.428,188.54-1.99C230.967,183.661,231.025,183.834,231.128,184.011z M19.088,197.288
		c3.925-4.425,7.935-8.773,11.936-13.129c0.074,0.042,0.129,0.109,0.209,0.141c0.178,0.491,0.612,0.886,1.313,0.908
		c2.11,0.069,4.239,0.113,6.353,0.178c-0.354,0.472-0.67,0.987-1.002,1.467c-0.995,1.442-2.003,2.875-2.987,4.325
		c-1.17,1.721-2.37,3.868-3.256,5.282c-0.45,0.719,0.205,1.513,0.898,1.559c-0.057,0.576,0.261,1.182,1.024,1.198
		c69.04,1.484,138.291-0.535,207.343-1.302c2.385-0.027,2.391-3.729,0-3.708c-0.229,0.002-0.458,0.003-0.687,0.005
		c-1.288-3.828-3.104-8.011-5.764-10.905c1.425-0.081,2.863-0.14,4.286-0.225c0.438,0.346,1.02,0.455,1.57,0.037
		c0.04-0.03,0.068-0.076,0.107-0.106c7.339,10.906,16.29,20.861,26.168,29.532c-34.226,1.558-68.361,2.012-102.476,2.007
		c0.816-0.289,1.488-1.138,1.142-2.031c-1.589-4.093-3.562-7.314-6.723-10.388c-0.803-0.782-1.8-0.535-2.382,0.096
		c-9.589-2.58-21.984-0.633-31.634,0.616c-0.422,0.055-0.682,0.303-0.859,0.6c-0.455-0.021-0.918,0.176-1.02,0.703
		c-0.648,3.367-1.829,6.243-3.697,9.118c-0.217,0.333-0.229,0.699-0.164,1.055c-37.83-0.337-75.669-0.904-113.612-0.895
		C10.209,208.537,14.43,202.54,19.088,197.288z M124.589,205.103c5.678-0.172,11.347-0.336,17.028-0.309
		c4.858,0.023,9.842,0.642,14.632-0.176c1.982,2.1,3.533,4.223,4.77,6.718c-12.712,0.345-25.424,0.673-38.134,1.055
		C123.803,210.056,124.329,207.707,124.589,205.103z M4.188,226.456c-0.219-1.703-0.673-3.426-0.847-5.094
		c-0.173-1.656-0.22-3.32-0.228-4.984c87.886,8.057,178.311,4.57,266.312,0.243c0.161-0.008,0.258-0.097,0.398-0.133
		c-0.016,0.892-0.024,1.783,0.014,2.706c0.043,1.051,0.09,2.124,0.178,3.173c0.034,0.407,0.15,0.815,0.241,1.223
		C181.479,224.486,92.973,227.087,4.188,226.456z"/>
	<path style="fill:#1D1D1B;" d="M263.662,208.766c-17.982-1.797-35.997-0.886-53.827,1.928c-0.414,0.066-0.322,0.788,0.101,0.74
		c17.94-2.029,35.706-2.238,53.726-1.419C264.477,210.053,264.447,208.845,263.662,208.766z"/>
	<path style="fill:#1D1D1B;" d="M253.196,201.476c-13.543-1.33-27.758,0.042-41.273,1.304c-0.777,0.072-0.795,1.287,0,1.229
		c13.74-0.989,27.567-0.587,41.273-1.602C253.799,202.363,253.79,201.535,253.196,201.476z"/>
	<path style="fill:#1D1D1B;" d="M249.919,194.086c-3.266-0.004-6.428-0.064-9.665-0.592c-0.754-0.123-1.093,1.008-0.321,1.166
		c3.267,0.673,6.651,1.069,9.986,0.774C250.77,195.36,250.801,194.087,249.919,194.086z"/>
	<path style="fill:#1D1D1B;" d="M244.53,185.059c-1.51,0.363-2.862,0.739-4.439,0.636c-0.687-0.045-0.653,0.97,0,1.05
		c1.676,0.208,3.356,0.122,4.835-0.744C245.438,185.703,245.095,184.923,244.53,185.059z"/>
	<path style="fill:#1D1D1B;" d="M240.746,173.155c-11.775-0.119-23.618,0.518-35.384,0.96c-0.534,0.02-0.539,0.835,0,0.833
		c11.771-0.039,23.627,0.113,35.384-0.485C241.583,174.421,241.593,173.163,240.746,173.155z"/>
	<path style="fill:#1D1D1B;" d="M240.757,167.566c-11.104-0.216-22.356,0.986-33.443,1.613c-0.494,0.028-0.501,0.786,0,0.774
		c11.094-0.292,22.4-0.028,33.443-1.157C241.529,168.717,241.565,167.582,240.757,167.566z"/>
	<path style="fill:#1D1D1B;" d="M240.777,158.171c-4.187,0.162-8.273,0.621-12.477,0.431c-0.92-0.041-0.882,1.313,0,1.408
		c4.151,0.446,8.588,0.63,12.681-0.339C241.812,159.474,241.643,158.137,240.777,158.171z"/>
	<path style="fill:#1D1D1B;" d="M241.421,145.836c-3.727-0.07-7.477,0.483-11.177,0.901c-0.765,0.086-0.81,1.251,0,1.229
		c3.786-0.103,7.627-0.093,11.372-0.69C242.455,147.143,242.222,145.851,241.421,145.836z"/>
	<path style="fill:#1D1D1B;" d="M240.164,133.401c-3.072,0.402-5.933,0.818-9.021,0.221c-0.904-0.175-1.299,1.176-0.384,1.396
		c3.24,0.781,6.635,0.959,9.735-0.399C241.072,134.366,240.797,133.317,240.164,133.401z"/>
	<path style="fill:#1D1D1B;" d="M240.127,124.193c-3.74,0.395-7.405,0.745-11.172,0.542c-0.647-0.035-0.619,0.922,0,0.991
		c3.776,0.423,7.608,0.521,11.354-0.189C241.058,125.395,240.898,124.112,240.127,124.193z"/>
	<path style="fill:#1D1D1B;" d="M238.79,106.928c-3.511,0.408-6.952,0.803-10.493,0.585c-0.928-0.057-0.898,1.336,0,1.428
		c3.582,0.369,7.197,0.368,10.685-0.591C239.74,108.142,239.624,106.831,238.79,106.928z"/>
	<path style="fill:#1D1D1B;" d="M239.652,94.36c-3.74-0.652-7.568-0.671-11.35-0.856c-1.171-0.057-1.145,1.709,0,1.805
		c3.695,0.309,7.422,0.798,11.133,0.647C240.304,95.922,240.597,94.525,239.652,94.36z"/>
	<path style="fill:#1D1D1B;" d="M238.323,81.816c-2.813-0.398-5.809,0.268-8.683,0.044c-0.65-0.05-0.81,1.044-0.156,1.149
		c2.805,0.453,6.302,1.028,8.974-0.16C238.881,82.661,238.793,81.882,238.323,81.816z"/>
	<path style="fill:#1D1D1B;" d="M238.823,71.698c-3.304-0.012-6.548,0.407-9.866,0.246c-1.139-0.056-1.065,1.583,0,1.725
		c3.29,0.439,6.882,0.61,10.073-0.451C239.839,72.948,239.725,71.701,238.823,71.698z"/>
	<path style="fill:#1D1D1B;" d="M238.124,57.001c-2.362-0.289-4.833-0.047-7.205,0.083c-0.723,0.04-0.703,1.039,0,1.111
		c2.364,0.236,4.829,0.594,7.205,0.412C239.173,58.526,239.138,57.125,238.124,57.001z"/>
	<path style="fill:#1D1D1B;" d="M238.773,48.578c-11.973-0.484-24.052-0.026-36.033,0.144c-0.615,0.009-0.612,0.928,0,0.952
		c11.976,0.489,24.047,1.27,36.033,1.105C240.195,50.76,240.188,48.635,238.773,48.578z"/>
</g>
<g>
</g>
<g>
</g>
<g>
</g>
<g>
</g>
<g>
</g>
<g>
</g>
<g>
</g>
<g>
</g>
<g>
</g>
<g>
</g>
<g>
</g>
<g>
</g>
<g>
</g>
<g>
</g>
<g>
</g>
</svg>
